<?xml version="1.0" encoding="utf-8"?>
<!-- Generator: Adobe Illustrator 26.0.1, SVG Export Plug-In . SVG Version: 6.00 Build 0)  -->
<svg version="1.1" id="レイヤー_1" xmlns="http://www.w3.org/2000/svg" xmlns:xlink="http://www.w3.org/1999/xlink" x="0px"
	 y="0px" viewBox="0 0 381 95.6" style="enable-background:new 0 0 381 95.6;" xml:space="preserve">
<style type="text/css">
	.st0{fill:#FFFFFF;}
</style>
<g>
	
		<image style="overflow:visible;" width="399" height="114" xlink:href="B99DA4606833753A.png"  transform="matrix(1 0 0 1 -9.1742 -9.0357)">
	</image>
	<g>
		<g>
			<path class="st0" d="M107.1,20.3l-15.3,8.8C81.5,4.9,53.5-6.5,29.2,3.8S-6.5,42.2,3.8,66.5s38.3,35.7,62.7,25.4
				C77.9,87,87,77.9,91.8,66.5l15.3,8.8c1.5,0.9,3.4,0.3,4.2-1.1c0.3-0.5,0.4-1,0.4-1.5V23c0-1.7-1.4-3.1-3.1-3.1
				C108.1,19.9,107.6,20,107.1,20.3z M47.8,80.8c-18.2,0-33-14.7-33.1-32.9c0-18.2,14.7-33,32.9-33.1c14,0,26.5,8.7,31.2,21.9
				l-14.7,8.5c-1.5,0.9-2,2.8-1.1,4.3c0.3,0.5,0.7,0.9,1.1,1.1L78.8,59C74.1,72,61.7,80.7,47.8,80.8z M272.2,24.7v56.2
				c0,1.6-1.3,2.9-2.9,2.9l0,0h-5c-1.6,0-2.9-1.3-2.9-2.9V24.7c0-1.6,1.3-2.8,2.9-2.9h5C270.8,21.8,272.1,23.1,272.2,24.7
				C272.2,24.7,272.2,24.7,272.2,24.7z M272.5,8.2v5.4c0,1.7-1.3,3-2.9,3c0,0,0,0-0.1,0h-5.4c-1.7,0-3-1.4-3-3V8.2c0-1.7,1.3-3,3-3
				c0,0,0,0,0.1,0h5.4C271.2,5.2,272.5,6.5,272.5,8.2z M245.6,33.7l-10.2,5.9c-6.9-16.2-25.5-23.7-41.7-16.9S170,48.2,176.9,64.4
				s25.5,23.7,41.7,16.9c7.6-3.2,13.7-9.3,16.9-16.9l10.2,5.9c1,0.6,2.3,0.2,2.8-0.8c0.2-0.3,0.3-0.7,0.3-1v-33c0-1.1-0.9-2.1-2-2.1
				C246.3,33.4,246,33.5,245.6,33.7z M217,53.8l9.8,5.6c-4.1,11.4-16.7,17.3-28.1,13.2S181.4,56,185.5,44.6
				c4.1-11.4,16.7-17.3,28.1-13.2c6.2,2.2,11,7.1,13.2,13.2l-9.7,5.6c-1,0.5-1.4,1.8-0.8,2.8C216.4,53.3,216.7,53.6,217,53.8z
				 M172.2,22.4c0.5,0.6,0.7,1.4,0.6,2.2l-0.6,4.3c-0.2,1.5-1.6,2.6-3.1,2.4c-12.1-0.7-22.9,7.6-25.3,19.5v30c0,1.6-1.3,2.9-2.9,2.9
				c0,0,0,0,0,0h-5.4c-1.6,0-2.9-1.3-2.9-2.9V23.1c0-1.6,1.3-2.9,2.9-2.9h5.4c1.6,0,2.9,1.3,2.9,2.9v7.8c7-6.8,16.6-10.3,26.3-9.5
				C171,21.4,171.7,21.8,172.2,22.4z M293.3,47.3c-2.6,11.9,5,23.6,16.8,26.2c1.5,0.3,3.1,0.5,4.7,0.5c6.8,0,13.3-3.2,17.4-8.6
				c0.9-1.1,2.5-1.5,3.8-0.8l3.6,2.1c0.7,0.4,1.2,1.1,1.4,1.9c0.2,0.8,0,1.6-0.5,2.2c-10.3,14.2-30.2,17.4-44.5,7
				c-14.2-10.3-17.4-30.2-7-44.5c10.3-14.2,30.2-17.4,44.5-7c2.7,2,5.1,4.3,7,7c0.5,0.6,0.6,1.4,0.5,2.2c-0.2,0.8-0.7,1.5-1.4,1.9
				l-3.6,2.1c-1.3,0.7-2.9,0.3-3.8-0.8c-7.3-9.6-21.1-11.5-30.7-4.2C297.3,37.7,294.5,42.2,293.3,47.3L293.3,47.3z M381,24.7v3.8
				c0,1.6-1.3,2.9-2.9,2.9l0,0h-7.5v49.5c0,0.6-0.2,1.2-0.5,1.6c-0.5,0.8-1.4,1.2-2.4,1.2h-5c-0.7,0-1.5-0.3-2-0.8
				c-0.6-0.5-0.9-1.3-0.9-2.1V31.4h-7.6c-1.6,0-2.9-1.3-2.9-2.9v-3.8c0-1.6,1.3-2.9,2.9-2.9h7.6V8c0-0.6,0.2-1.2,0.5-1.6
				c0.1-0.2,0.2-0.3,0.4-0.4c0.5-0.5,1.3-0.8,2-0.8h5c0.9,0,1.8,0.5,2.4,1.2c0.3,0.5,0.5,1,0.5,1.6v13.8h7.5
				C379.7,21.8,381,23.1,381,24.7z"/>
		</g>
	</g>
</g>
</svg>
