<svg width="28" height="28" viewBox="0 0 28 28" fill="none" xmlns="http://www.w3.org/2000/svg">
<path d="M14 0.5C6.545 0.5 0.5 6.545 0.5 14C0.5 21.455 6.545 27.5 14 27.5C15.245 27.5 16.25 26.495 16.25 25.25C16.25 24.665 16.025 24.14 15.665 23.735C15.32 23.345 15.095 22.82 15.095 22.25C15.095 21.005 16.1 20 17.345 20H20C24.14 20 27.5 16.64 27.5 12.5C27.5 5.87 21.455 0.5 14 0.5ZM5.75 14C4.505 14 3.5 12.995 3.5 11.75C3.5 10.505 4.505 9.5 5.75 9.5C6.995 9.5 8 10.505 8 11.75C8 12.995 6.995 14 5.75 14ZM10.25 8C9.005 8 8 6.995 8 5.75C8 4.505 9.005 3.5 10.25 3.5C11.495 3.5 12.5 4.505 12.5 5.75C12.5 6.995 11.495 8 10.25 8ZM17.75 8C16.505 8 15.5 6.995 15.5 5.75C15.5 4.505 16.505 3.5 17.75 3.5C18.995 3.5 20 4.505 20 5.75C20 6.995 18.995 8 17.75 8ZM22.25 14C21.005 14 20 12.995 20 11.75C20 10.505 21.005 9.5 22.25 9.5C23.495 9.5 24.5 10.505 24.5 11.75C24.5 12.995 23.495 14 22.25 14Z" fill="white"/>
</svg>
