<?xml version="1.0" encoding="utf-8"?>
<!-- Generator: Adobe Illustrator 26.0.3, SVG Export Plug-In . SVG Version: 6.00 Build 0)  -->
<svg version="1.1" id="_x32_" xmlns="http://www.w3.org/2000/svg" xmlns:xlink="http://www.w3.org/1999/xlink" x="0px" y="0px"
	 viewBox="0 0 556.9 512" style="enable-background:new 0 0 556.9 512;" xml:space="preserve">
<style type="text/css">
	.st0{fill:#565656;}
</style>
<g>
	<g>
		<path d="M154.9,188.9l-44.1-54.2h22.5c0.4-52.9,39.9-72.5,77.9-66.2c-23.6,11.6-32.9,35.6-34,66.2H199L154.9,188.9z"/>
	</g>
	<path class="st0" d="M503.7,0H332.5c-29.3,0-53.1,23.8-53.1,53.1v161.6h31.5V67.3h214.5v190.5c4.1,9.1,6.4,19.3,6.4,29.9v171.2
		c0,20.8-8.7,39.5-22.7,52.8c26.8-2.7,47.7-25.4,47.7-52.8V53.1C556.9,23.8,533,0,503.7,0z M445.9,53.9h-55.4
		c-2.4,0-4.4-2.2-4.4-4.8s2-4.8,4.4-4.8h55.4c2.4,0,4.4,2.2,4.4,4.8S448.3,53.9,445.9,53.9z"/>
	<path d="M458.9,234.5H53.1C23.8,234.6,0,258.4,0,287.7v171.2C0,488.2,23.8,512,53.1,512h405.8c29.3,0,53.1-23.8,53.1-53.1V287.7
		C512,258.4,488.2,234.5,458.9,234.5z M54,401c0,2.4-2.2,4.4-4.8,4.4s-4.8-2-4.8-4.4v-55.4c0-2.4,2.2-4.4,4.8-4.4s4.8,2,4.8,4.4V401
		z M407.4,480.5H67.3V266h340.1V480.5z M459.1,394.8c-11.9,0-21.5-9.6-21.5-21.5c0-11.9,9.6-21.5,21.5-21.5
		c11.9,0,21.5,9.7,21.5,21.5C480.6,385.2,471,394.8,459.1,394.8z"/>
</g>
</svg>
