<svg width="28" height="28" viewBox="0 0 28 28" fill="none" xmlns="http://www.w3.org/2000/svg">
<path d="M7.25293 12.8203C7.25293 15.8896 9.74805 18.3848 12.8174 18.3848C13.959 18.3848 15.0049 18.0361 15.8799 17.4414L19.0244 20.5859C19.2158 20.7842 19.4824 20.873 19.749 20.873C20.3301 20.873 20.7471 20.4355 20.7471 19.8682C20.7471 19.5947 20.6514 19.3418 20.4668 19.1504L17.3428 16.0195C17.9922 15.124 18.3818 14.0166 18.3818 12.8203C18.3818 9.75098 15.8867 7.25586 12.8174 7.25586C9.74805 7.25586 7.25293 9.75098 7.25293 12.8203ZM8.70215 12.8203C8.70215 10.5508 10.541 8.70508 12.8174 8.70508C15.0869 8.70508 16.9326 10.5508 16.9326 12.8203C16.9326 15.0898 15.0869 16.9355 12.8174 16.9355C10.541 16.9355 8.70215 15.0898 8.70215 12.8203Z" fill="#3C3C43" fill-opacity="0.6"/>
</svg>
